HIERARCHY
ROOT Haolin_28_06:Solving:Hips
{
	OFFSET 0.000000 0.000000 0.000000
	CHANNELS 6 Xposition Yposition Zposition Xrotation Yrotation Zrotation
	JOINT Haolin_28_06:Solving:Spine
	{
		OFFSET 0.000000 -12.181966 2.015561
		CHANNELS 6 Xposition Yposition Zposition Xrotation Yrotation Zrotation
		JOINT Haolin_28_06:Solving:Spine1
		{
			OFFSET 0.000000 -8.890296 1.567602
			CHANNELS 6 Xposition Yposition Zposition Xrotation Yrotation Zrotation
			JOINT Haolin_28_06:Solving:Spine2
			{
				OFFSET 0.000000 -8.993092 0.786796
				CHANNELS 6 Xposition Yposition Zposition Xrotation Yrotation Zrotation
				JOINT Haolin_28_06:Solving:Spine3
				{
					OFFSET 0.000000 -9.027443 0.000000
					CHANNELS 6 Xposition Yposition Zposition Xrotation Yrotation Zrotation
					JOINT Haolin_28_06:Solving:Neck
					{
						OFFSET 0.000000 -11.606712 -1.160669
						CHANNELS 6 Xposition Yposition Zposition Xrotation Yrotation Zrotation
						JOINT Haolin_28_06:Solving:Neck1
						{
							OFFSET 0.000000 -7.471592 -0.653680
							CHANNELS 6 Xposition Yposition Zposition Xrotation Yrotation Zrotation
							JOINT Haolin_28_06:Solving:Head
							{
								OFFSET 0.000000 -7.386181 -1.302382
								CHANNELS 6 Xposition Yposition Zposition Xrotation Yrotation Zrotation
								JOINT Haolin_28_06:Solving:HeadEnd
								{
									OFFSET 0.000000 -9.728081 0.000002
									CHANNELS 6 Xposition Yposition Zposition Xrotation Yrotation Zrotation
									End Site
									{
										OFFSET 0.000000 -9.728081 0.000002
									}
								}
							}
						}
					}
					JOINT Haolin_28_06:Solving:RightShoulder
					{
						OFFSET 0.000000 -8.290508 -5.270916
						CHANNELS 6 Xposition Yposition Zposition Xrotation Yrotation Zrotation
						JOINT Haolin_28_06:Solving:RightArm
						{
							OFFSET -19.261074 -0.000008 0.000000
							CHANNELS 6 Xposition Yposition Zposition Xrotation Yrotation Zrotation
							JOINT Haolin_28_06:Solving:RightForeArm
							{
								OFFSET -30.691700 -0.000011 0.000000
								CHANNELS 6 Xposition Yposition Zposition Xrotation Yrotation Zrotation
								JOINT Haolin_28_06:Solving:RightHand
								{
									OFFSET -20.216934 -0.000008 0.000000
									CHANNELS 6 Xposition Yposition Zposition Xrotation Yrotation Zrotation
									JOINT Haolin_28_06:Solving:RightHandThumb1
									{
										OFFSET -4.948814 2.881329 -3.679893
										CHANNELS 6 Xposition Yposition Zposition Xrotation Yrotation Zrotation
										End Site
										{
											OFFSET -7.039886 -0.000004 -7.104978
										}
									}
									JOINT Haolin_28_06:Solving:RightHandMiddle1
									{
										OFFSET -13.196846 -0.000004 0.084595
										CHANNELS 6 Xposition Yposition Zposition Xrotation Yrotation Zrotation
										End Site
										{
											OFFSET -10.002037 -0.000004 0.000000
										}
									}
								}
							}
						}
					}
					JOINT Haolin_28_06:Solving:LeftShoulder
					{
						OFFSET 0.000000 -8.290508 -5.270916
						CHANNELS 6 Xposition Yposition Zposition Xrotation Yrotation Zrotation
						JOINT Haolin_28_06:Solving:LeftArm
						{
							OFFSET 19.261074 -0.000008 0.000000
							CHANNELS 6 Xposition Yposition Zposition Xrotation Yrotation Zrotation
							JOINT Haolin_28_06:Solving:LeftForeArm
							{
								OFFSET 30.691700 -0.000011 0.000000
								CHANNELS 6 Xposition Yposition Zposition Xrotation Yrotation Zrotation
								JOINT Haolin_28_06:Solving:LeftHand
								{
									OFFSET 20.216934 -0.000008 0.000000
									CHANNELS 6 Xposition Yposition Zposition Xrotation Yrotation Zrotation
									JOINT Haolin_28_06:Solving:LeftHandThumb1
									{
										OFFSET 4.948814 2.881329 -3.679893
										CHANNELS 6 Xposition Yposition Zposition Xrotation Yrotation Zrotation
										End Site
										{
											OFFSET 7.039886 -0.000004 -7.104978
										}
									}
									JOINT Haolin_28_06:Solving:LeftHandMiddle1
									{
										OFFSET 13.196846 -0.000004 0.084595
										CHANNELS 6 Xposition Yposition Zposition Xrotation Yrotation Zrotation
										End Site
										{
											OFFSET 10.002037 -0.000004 0.000000
										}
									}
								}
							}
						}
					}
				}
			}
		}
	}
	JOINT Haolin_28_06:Solving:RightUpLeg
	{
		OFFSET -10.083070 0.000000 0.000000
		CHANNELS 6 Xposition Yposition Zposition Xrotation Yrotation Zrotation
		JOINT Haolin_28_06:Solving:RightLeg
		{
			OFFSET 0.000000 47.042522 -0.000008
			CHANNELS 6 Xposition Yposition Zposition Xrotation Yrotation Zrotation
			JOINT Haolin_28_06:Solving:RightFoot
			{
				OFFSET 0.000000 38.766415 -0.000006
				CHANNELS 6 Xposition Yposition Zposition Xrotation Yrotation Zrotation
				JOINT Haolin_28_06:Solving:RightForeFoot
				{
					OFFSET 0.000000 3.531212 -0.000000
					CHANNELS 6 Xposition Yposition Zposition Xrotation Yrotation Zrotation
					JOINT Haolin_28_06:Solving:RightToeBase
					{
						OFFSET 0.000000 0.000000 -13.829352
						CHANNELS 6 Xposition Yposition Zposition Xrotation Yrotation Zrotation
						JOINT Haolin_28_06:Solving:RightToeBaseEnd
						{
							OFFSET 0.000000 0.000000 -4.034167
							CHANNELS 6 Xposition Yposition Zposition Xrotation Yrotation Zrotation
							End Site
							{
								OFFSET 0.000000 -4.034164 0.000004
							}
						}
					}
				}
			}
		}
	}
	JOINT Haolin_28_06:Solving:LeftUpLeg
	{
		OFFSET 10.083070 0.000000 0.000000
		CHANNELS 6 Xposition Yposition Zposition Xrotation Yrotation Zrotation
		JOINT Haolin_28_06:Solving:LeftLeg
		{
			OFFSET 0.000000 47.042522 -0.000008
			CHANNELS 6 Xposition Yposition Zposition Xrotation Yrotation Zrotation
			JOINT Haolin_28_06:Solving:LeftFoot
			{
				OFFSET 0.000000 38.766415 -0.000006
				CHANNELS 6 Xposition Yposition Zposition Xrotation Yrotation Zrotation
				JOINT Haolin_28_06:Solving:LeftForeFoot
				{
					OFFSET 0.000000 3.531212 -0.000000
					CHANNELS 6 Xposition Yposition Zposition Xrotation Yrotation Zrotation
					JOINT Haolin_28_06:Solving:LeftToeBase
					{
						OFFSET 0.000000 0.000000 -13.829352
						CHANNELS 6 Xposition Yposition Zposition Xrotation Yrotation Zrotation
						JOINT Haolin_28_06:Solving:LeftToeBaseEnd
						{
							OFFSET 0.000000 0.000000 -4.855067
							CHANNELS 6 Xposition Yposition Zposition Xrotation Yrotation Zrotation
							End Site
							{
								OFFSET 0.000000 -4.855064 0.000004
							}
						}
					}
				}
			}
		}
	}
}
MOTION
Frames: 4
Frame Time: 0.041667
-4.160163 4.507271 -92.240234 85.908043 31.111553 -1.352663 0.000000 -12.181979 2.015562 16.635052 -0.451894 -0.910965 -0.000000 -8.890301 1.567598 0.492463 -0.143827 -0.183986 0.000001 -8.993096 0.786797 0.827032 -4.531117 1.294801 0.000001 -9.027455 0.000002 3.059009 -2.216019 4.575925 -0.000001 -11.606697 -1.160673 -7.490926 -3.614082 -0.405353 0.000000 -7.471601 -0.653682 -1.036652 -9.139759 -1.513802 -0.000002 -7.386181 -1.302387 5.364659 -0.522290 -0.789437 -0.000001 -9.728081 0.000010 -0.000001 -0.000000 0.000000 -0.000002 -8.290493 -5.270919 -0.000016 14.413128 7.081398 -19.261074 0.000001 0.000006 -7.643748 -51.143552 -79.146115 -30.691721 -0.000023 -0.000010 -20.243154 -18.603601 -6.709936 -20.216930 -0.000016 -0.000001 1.728166 -13.132240 7.564421 -4.948809 2.881329 -3.679869 -0.000003 -0.000007 0.000007 -13.196843 -0.000004 0.084596 0.000001 0.000001 0.000004 -0.000002 -8.290508 -5.270917 -0.000013 -8.661400 -5.143648 19.261070 0.000023 -0.000001 -7.890004 40.515712 76.447487 30.691704 -0.000015 0.000004 -1.938880 18.601863 0.618703 20.216942 -0.000021 0.000009 0.026916 2.777057 -0.555522 4.948798 2.881333 -3.679878 -0.000002 -0.000003 -0.000001 13.196841 -0.000009 0.084600 -0.000000 -0.000003 0.000003 -10.083073 -0.000007 0.000001 -12.484498 -20.661980 3.204958 0.000003 47.042545 -0.000001 26.335671 -0.000001 -0.000003 0.000001 38.766403 -0.000007 -2.853471 8.600582 -10.188918 -0.000002 3.531212 -0.000001 0.000001 -0.000001 0.000001 0.000001 0.000003 -13.829351 -7.759923 -0.000003 0.000000 0.000001 -0.000000 -4.034173 -0.000000 -0.000003 -0.000000 10.083071 -0.000013 0.000000 -1.325640 22.656511 0.330561 0.000002 47.042507 0.000000 21.486223 0.000008 -0.000003 -0.000003 38.766418 -0.000005 -9.011030 8.863098 12.150696 0.000002 3.531212 -0.000001 -0.000000 0.000000 0.000000 0.000004 0.000017 -13.829350 1.848916 0.000003 0.000002 -0.000002 0.000000 -4.855063 0.000001 0.000004 0.000001 
-4.368310 4.398311 -92.227158 86.143623 30.222371 -1.551375 -0.000002 -12.181937 2.015559 16.640550 -0.461529 -0.965879 0.000001 -8.890292 1.567602 0.481255 -0.140340 -0.214485 0.000001 -8.993095 0.786799 0.808574 -4.610271 1.283710 -0.000002 -9.027433 -0.000007 3.027441 -2.242092 4.600964 0.000001 -11.606726 -1.160666 -7.582179 -3.623956 -0.386743 -0.000001 -7.471622 -0.653680 -1.099959 -9.058440 -1.431595 -0.000000 -7.386177 -1.302377 5.265345 -0.532560 -0.665172 0.000000 -9.728119 0.000009 0.000000 -0.000001 -0.000001 0.000002 -8.290516 -5.270914 -0.000012 14.365259 7.165002 -19.261074 0.000010 0.000002 -7.765034 -51.101945 -79.162623 -30.691729 -0.000010 -0.000001 -20.454851 -18.981436 -6.917218 -20.216930 -0.000013 0.000008 1.772256 -13.365576 7.623773 -4.948814 2.881332 -3.679878 -0.000004 0.000007 0.000002 -13.196844 -0.000001 0.084600 -0.000003 0.000004 0.000002 0.000003 -8.290531 -5.270914 -0.000006 -8.689081 -5.054753 19.261063 0.000033 -0.000002 -7.738410 40.547886 76.301607 30.691710 -0.000017 0.000002 -1.962721 18.732595 0.630559 20.216930 -0.000017 0.000005 0.033610 2.810250 -0.685420 4.948825 2.881320 -3.679886 -0.000003 0.000000 -0.000006 13.196861 -0.000005 0.084590 0.000001 -0.000001 -0.000000 -10.083070 0.000021 -0.000002 -12.637593 -19.581883 3.395650 0.000003 47.042538 0.000001 26.474399 0.000001 0.000000 0.000010 38.766426 -0.000008 -2.999877 8.581995 -10.323713 0.000003 3.531204 -0.000004 0.000001 -0.000003 0.000001 -0.000003 0.000012 -13.829356 -7.270099 0.000001 0.000000 -0.000002 0.000000 -4.034167 0.000000 0.000003 -0.000001 10.083067 0.000011 -0.000001 -1.579432 23.164669 0.194178 0.000001 47.042542 -0.000004 21.406626 0.000004 -0.000001 -0.000006 38.766403 -0.000008 -8.984998 9.014767 12.307965 -0.000003 3.531212 -0.000001 -0.000001 -0.000005 0.000002 0.000001 0.000001 -13.829353 1.829082 -0.000001 0.000001 -0.000001 -0.000008 -4.855066 -0.000002 0.000005 0.000000 
-4.570351 4.285950 -92.217216 86.353105 29.346222 -1.732455 0.000001 -12.181964 2.015567 16.640728 -0.473669 -1.024932 -0.000003 -8.890298 1.567598 0.503549 -0.136739 -0.246495 -0.000001 -8.993099 0.786796 0.813507 -4.675927 1.275208 0.000000 -9.027431 0.000001 2.994282 -2.266944 4.644174 -0.000004 -11.606699 -1.160674 -7.655793 -3.609636 -0.351423 0.000000 -7.471595 -0.653674 -1.187643 -8.908816 -1.332630 0.000001 -7.386206 -1.302387 5.093664 -0.536331 -0.524880 0.000000 -9.728081 0.000006 0.000001 0.000001 0.000000 -0.000004 -8.290474 -5.270927 -0.000007 14.287044 7.252696 -19.261076 -0.000021 0.000004 -7.945948 -51.033230 -79.204014 -30.691704 -0.000027 0.000001 -20.715738 -19.336124 -7.137405 -20.216938 -0.000003 0.000001 1.786687 -13.541357 7.588383 -4.948783 2.881327 -3.679887 0.000001 -0.000000 0.000001 -13.196847 -0.000001 0.084592 0.000001 0.000003 -0.000001 -0.000006 -8.290474 -5.270929 -0.000004 -8.717384 -5.021376 19.261074 -0.000020 -0.000001 -7.735953 40.443080 76.298903 30.691717 -0.000017 -0.000003 -1.957669 18.798550 0.631066 20.216940 -0.000009 0.000001 0.039282 2.890154 -0.779071 4.948822 2.881331 -3.679875 -0.000012 -0.000009 -0.000002 13.196852 -0.000005 0.084596 -0.000007 -0.000002 -0.000003 -10.083068 0.000005 0.000005 -12.808727 -18.478611 3.586557 -0.000001 47.042545 -0.000001 26.652576 -0.000003 -0.000001 0.000007 38.766438 -0.000009 -3.087168 8.562685 -10.578671 -0.000000 3.531197 -0.000001 0.000000 -0.000004 0.000000 0.000004 0.000002 -13.829350 -6.936636 -0.000006 0.000000 -0.000001 0.000000 -4.034163 0.000000 0.000001 -0.000000 10.083069 0.000008 0.000006 -1.837164 23.591294 0.068578 0.000001 47.042519 -0.000000 21.363288 0.000006 -0.000003 -0.000004 38.766415 -0.000010 -8.917172 9.137740 12.461292 -0.000001 3.531204 0.000000 -0.000001 0.000000 -0.000002 -0.000000 0.000009 -13.829352 1.790567 0.000004 -0.000000 0.000001 -0.000007 -4.855065 0.000001 0.000006 -0.000001 
-4.782170 4.171391 -92.212044 86.559028 28.491939 -1.868750 0.000001 -12.181979 2.015558 16.642178 -0.497704 -1.138110 0.000000 -8.890310 1.567605 0.517682 -0.138696 -0.254479 -0.000001 -8.993089 0.786793 0.804172 -4.748186 1.263924 -0.000003 -9.027418 0.000001 2.978258 -2.287108 4.653975 -0.000002 -11.606674 -1.160685 -7.724065 -3.617537 -0.344244 0.000002 -7.471601 -0.653678 -1.266957 -8.819895 -1.227533 -0.000001 -7.386159 -1.302383 4.968975 -0.551174 -0.374923 -0.000001 -9.728127 0.000006 0.000002 0.000000 0.000000 -0.000002 -8.290482 -5.270932 -0.000004 14.216983 7.343794 -19.261068 -0.000019 0.000007 -8.155765 -51.079286 -79.253567 -30.691711 -0.000013 -0.000001 -21.038135 -19.630435 -7.362752 -20.216940 -0.000011 0.000005 1.811823 -13.648887 7.635174 -4.948811 2.881310 -3.679883 0.000001 0.000002 0.000005 -13.196860 -0.000007 0.084600 -0.000001 -0.000001 0.000001 -0.000002 -8.290516 -5.270924 -0.000003 -8.728041 -4.953791 19.261076 -0.000001 0.000003 -7.708607 40.340716 76.295515 30.691706 -0.000013 0.000004 -2.060195 18.869144 0.666542 20.216923 -0.000018 0.000004 0.047925 2.971590 -0.924275 4.948811 2.881322 -3.679872 -0.000004 -0.000005 -0.000005 13.196847 -0.000005 0.084598 0.000002 -0.000001 0.000001 -10.083070 0.000020 -0.000002 -12.977451 -17.296693 3.747511 -0.000002 47.042507 0.000005 26.776041 -0.000001 0.000000 0.000002 38.766415 -0.000008 -3.162545 8.433112 -10.717367 0.000001 3.531212 -0.000002 0.000002 -0.000001 0.000000 0.000001 0.000001 -13.829352 -6.689226 -0.000002 -0.000000 0.000003 -0.000008 -4.034166 -0.000000 0.000003 -0.000000 10.083071 -0.000002 -0.000003 -2.044337 24.000931 -0.113436 -0.000003 47.042519 -0.000001 21.272433 0.000003 0.000003 -0.000000 38.766418 -0.000009 -8.881756 9.197534 12.631847 0.000004 3.531212 -0.000003 -0.000001 -0.000001 -0.000000 -0.000001 -0.000004 -13.829356 1.907813 -0.000007 0.000000 0.000003 0.000008 -4.855065 0.000000 0.000001 0.000002 
